# xmcd
# 
# Track frame offsets:
#     150
#     12359
#     34843
#     57665
#     80021
#     103261
#     126097
#     149245
#     172428
#     193855
#     218035
#     240948
#     263047
#     285254
#     309619
# 
# Disc length: 4408
# 
# Revision: 2
# Processed by: cddbd v1.5.2PL0 Copyright (c) Steve Scherf et al.
# Submitted via: BonkEnc v1.0.8
# 
DISCID=e811360f
DTITLE=Joanne K. Rowling - Rufus Beck - Harry Potter und die Heiligtümer des Todes
DYEAR=2008
DGENRE=Hörbuch
TTITLE0=Der Ghul im Schlafanzug (10)
TTITLE1=Der Ghul im Schlafanzug (11)
TTITLE2=Das Testament von Albus Dumbledore (1)
TTITLE3=Das Testament von Albus Dumbledore (2)
TTITLE4=Das Testament von Albus Dumbledore (3)
TTITLE5=Das Testament von Albus Dumbledore (4)
TTITLE6=Das Testament von Albus Dumbledore (5)
TTITLE7=Das Testament von Albus Dumbledore (6)
TTITLE8=Das Testament von Albus Dumbledore (7)
TTITLE9=Das Testament von Albus Dumbledore (8)
TTITLE10=Das Testament von Albus Dumbledore (9)
TTITLE11=Das Testament von Albus Dumbledore (10)
TTITLE12=Die Hochzeit (1)
TTITLE13=Die Hochzeit (2)
TTITLE14=Die Hochzeit (3)
EXTD=YEAR: 2008
EXTT0=
EXTT1=
EXTT2=
EXTT3=
EXTT4=
EXTT5=
EXTT6=
EXTT7=
EXTT8=
EXTT9=
EXTT10=
EXTT11=
EXTT12=
EXTT13=
EXTT14=
PLAYORDER=
